<svg width="59" height="58" viewBox="0 0 59 58" fill="none" xmlns="http://www.w3.org/2000/svg">
<path d="M33.94 19.0514H11.3134C10.8848 19.0514 10.4737 18.8841 10.1706 18.5864C9.86754 18.2886 9.69727 17.8848 9.69727 17.4638V11.1133C9.69727 10.6922 9.86754 10.2884 10.1706 9.99064C10.4737 9.6929 10.8848 9.52563 11.3134 9.52563H33.94C34.3686 9.52563 34.7797 9.6929 35.0828 9.99064C35.3859 10.2884 35.5562 10.6922 35.5562 11.1133V17.4638C35.5562 17.8848 35.3859 18.2886 35.0828 18.5864C34.7797 18.8841 34.3686 19.0514 33.94 19.0514ZM12.9296 15.8761H32.3238V12.6056H12.9296V15.8761Z" fill="white"/>
<path d="M33.94 22.3538H11.3134C10.8848 22.3538 10.4737 22.521 10.1706 22.8188C9.86754 23.1165 9.69727 23.5203 9.69727 23.9414V30.1649C9.69727 30.5859 9.86754 30.9898 10.1706 31.2875C10.4737 31.5852 10.8848 31.7525 11.3134 31.7525H29.6733L35.5562 25.8783V23.9414C35.5562 23.5203 35.3859 23.1165 35.0828 22.8188C34.7797 22.521 34.3686 22.3538 33.94 22.3538ZM32.3238 28.5772H12.9296V25.402H32.3238V28.5772Z" fill="white"/>
<path d="M17.875 50.0261V49.9308L18.3922 47.724H6.46479V6.35054H38.7884V22.6237L42.0208 19.6231V4.76292C42.0208 4.34185 41.8505 3.93803 41.5474 3.6403C41.2443 3.34256 40.8333 3.17529 40.4046 3.17529H4.8486C4.41997 3.17529 4.00888 3.34256 3.70579 3.6403C3.4027 3.93803 3.23242 4.34185 3.23242 4.76292V49.2164C3.23242 49.6375 3.4027 50.0413 3.70579 50.339C4.00888 50.6367 4.41997 50.804 4.8486 50.804H17.7781C17.7914 50.5428 17.8238 50.2828 17.875 50.0261Z" fill="white"/>
<path d="M35.5555 30.4346L34.2949 31.6888C34.6077 31.6255 34.8943 31.4725 35.1187 31.2493C35.343 31.0261 35.4951 30.7426 35.5555 30.4346Z" fill="white"/>
<path d="M9.69727 42.7706C9.69727 43.1917 9.86754 43.5955 10.1706 43.8932C10.4737 44.191 10.8848 44.3582 11.3134 44.3582H19.1358L19.6206 42.2943L19.8307 41.4211V41.3417H12.9296V38.103H23.1762L26.4086 34.9277H11.3134C10.8848 34.9277 10.4737 35.095 10.1706 35.3927C9.86754 35.6905 9.69727 36.0943 9.69727 36.5154V42.7706Z" fill="white"/>
<path d="M54.127 26.4645L48.6805 21.1142C48.4388 20.8761 48.1516 20.6872 47.8354 20.5583C47.5193 20.4294 47.1803 20.363 46.838 20.363C46.4957 20.363 46.1568 20.4294 45.8406 20.5583C45.5245 20.6872 45.2373 20.8761 44.9956 21.1142L22.8377 43.0075L21.0114 50.644C20.9431 50.9734 20.9415 51.3129 21.0069 51.6429C21.0723 51.973 21.2033 52.2871 21.3925 52.5673C21.5817 52.8475 21.8252 53.0883 22.1093 53.2759C22.3933 53.4635 22.7123 53.5942 23.0478 53.6605C23.2144 53.6769 23.3823 53.6769 23.5488 53.6605C23.7469 53.6922 23.9488 53.6922 24.1468 53.6605L31.9853 51.9617L54.127 30.1636C54.3689 29.9275 54.5609 29.6468 54.6918 29.3375C54.8228 29.0283 54.8903 28.6966 54.8903 28.3617C54.8903 28.0267 54.8228 27.6951 54.6918 27.3858C54.5609 27.0766 54.3689 26.7958 54.127 26.5597V26.4645ZM30.3368 49.0722L24.4216 50.3582L25.86 44.5951L42.4743 28.0997L47.032 32.5768L30.3368 49.0722ZM48.8583 30.7828L44.3006 26.3057L46.8703 23.8131L51.4603 28.322L48.8583 30.7828Z" fill="white"/>
</svg>
