<svg width="20" height="20" viewBox="0 0 20 20" fill="none" xmlns="http://www.w3.org/2000/svg">
<path d="M18.5126 11.4316H11.5321V18.3744C11.5321 18.7426 11.385 19.0958 11.1232 19.3562C10.8614 19.6166 10.5063 19.7629 10.136 19.7629C9.76573 19.7629 9.41062 19.6166 9.1488 19.3562C8.88698 19.0958 8.73989 18.7426 8.73989 18.3744V11.4316H1.75938C1.38911 11.4316 1.03401 11.2853 0.77219 11.0249C0.51037 10.7645 0.363281 10.4113 0.363281 10.0431C0.363281 9.67481 0.51037 9.32163 0.77219 9.06123C1.03401 8.80082 1.38911 8.65453 1.75938 8.65453H8.73989V1.71179C8.73989 1.34352 8.88698 0.990341 9.1488 0.729938C9.41062 0.469535 9.76573 0.323242 10.136 0.323242C10.5063 0.323242 10.8614 0.469535 11.1232 0.729938C11.385 0.990341 11.5321 1.34352 11.5321 1.71179V8.65453H18.5126C18.8829 8.65453 19.238 8.80082 19.4998 9.06123C19.7616 9.32163 19.9087 9.67481 19.9087 10.0431C19.9087 10.4113 19.7616 10.7645 19.4998 11.0249C19.238 11.2853 18.8829 11.4316 18.5126 11.4316Z" fill="black"/>
</svg>
