<svg width="22" height="21" viewBox="0 0 22 21" fill="none" xmlns="http://www.w3.org/2000/svg">
<path fill-rule="evenodd" clip-rule="evenodd" d="M0.833984 1.34375C0.833984 0.87776 1.23973 0.5 1.74023 0.5H11.4069C11.9074 0.5 12.3132 0.87776 12.3132 1.34375C12.3132 1.80974 11.9074 2.1875 11.4069 2.1875H2.64648V8.09375C2.64648 8.55974 2.24074 8.9375 1.74023 8.9375C1.23973 8.9375 0.833984 8.55974 0.833984 8.09375V1.34375ZM16.5423 1.34375C16.5423 0.87776 16.9481 0.5 17.4486 0.5H21.0736C21.5741 0.5 21.9798 0.87776 21.9798 1.34375V19.3437C21.9798 19.8097 21.5741 20.1875 21.0736 20.1875H13.8236C13.3231 20.1875 12.9173 19.8097 12.9173 19.3437C12.9173 18.8778 13.3231 18.5 13.8236 18.5H20.1673V2.1875H17.4486C16.9481 2.1875 16.5423 1.80974 16.5423 1.34375ZM11.9744 4.12213C12.3283 3.79262 12.9021 3.79262 13.256 4.12213L18.0894 8.62213C18.4433 8.95163 18.4433 9.48587 18.0894 9.81537L13.256 14.3154C12.9021 14.6449 12.3283 14.6449 11.9744 14.3154C11.6205 13.9859 11.6205 13.4516 11.9744 13.1221L12.5419 12.5937L8.99023 9.28699L2.64648 15.1932V18.5H6.19819L8.95358 15.9346C9.3075 15.6051 9.8813 15.6051 10.2352 15.9346C10.5891 16.2641 10.5891 16.7984 10.2352 17.1279L7.21438 19.9404C7.04443 20.0986 6.81392 20.1875 6.57357 20.1875H1.74023C1.23973 20.1875 0.833984 19.8097 0.833984 19.3437V14.8437C0.833984 14.62 0.929464 14.4054 1.09942 14.2471L11.9744 4.12213ZM10.2719 8.09375L13.8236 11.4005L16.1669 9.21875L12.6152 5.91199L10.2719 8.09375Z" fill="black" fill-opacity="0.4"/>
</svg>
