<svg width="41" height="35" viewBox="0 0 41 35" fill="none" xmlns="http://www.w3.org/2000/svg">
<g clip-path="url(#clip0_360_567)">
<path fill-rule="evenodd" clip-rule="evenodd" d="M11.291 34.8917V0.741699H14.3024V34.8917H11.291Z" fill="#969BA0"/>
<path fill-rule="evenodd" clip-rule="evenodd" d="M35.8855 24.6467V10.9867C35.8855 8.49952 35.8791 6.89181 35.6918 5.70721C35.5163 4.5963 35.2326 4.2481 35.0036 4.05312C34.7743 3.85814 34.3649 3.61701 33.0586 3.46765C31.6659 3.3084 29.7755 3.30295 26.8512 3.30295H12.7979C10.8661 3.30295 9.6186 3.30541 8.67319 3.37828C7.76918 3.44797 7.441 3.56553 7.27691 3.64609C6.81912 3.87088 6.43895 4.19421 6.17465 4.58357C6.07993 4.72313 5.94171 5.00225 5.85977 5.77112C5.77409 6.5752 5.7712 7.63621 5.7712 9.2792V26.3542C5.7712 27.9972 5.77409 29.0582 5.85977 29.8623C5.94171 30.6311 6.07993 30.9103 6.17465 31.0498C6.43895 31.4391 6.81912 31.7625 7.27691 31.9872C7.441 32.0678 7.76918 32.1855 8.67319 32.2552C9.6186 32.3281 10.8661 32.3305 12.7979 32.3305H26.8512C29.7755 32.3305 31.6659 32.325 33.0586 32.1657C34.3649 32.0164 34.7743 31.7752 35.0036 31.5803C35.2326 31.3853 35.5163 31.0372 35.6918 29.9261C35.8791 28.7416 35.8855 27.1338 35.8855 24.6467ZM3.56667 3.30295C2.75977 4.49163 2.75977 6.08749 2.75977 9.2792V26.3542C2.75977 29.5459 2.75977 31.1417 3.56667 32.3305C4.0953 33.1092 4.8556 33.7559 5.7712 34.2055C7.1688 34.8917 9.04517 34.8917 12.7979 34.8917H26.8512C32.5296 34.8917 35.3688 34.8917 37.1329 33.3913C38.897 31.8909 38.897 29.4762 38.897 24.6467V10.9867C38.897 6.15716 38.897 3.74239 37.1329 2.24205C35.3688 0.741699 32.5296 0.741699 26.8512 0.741699H12.7979C9.04517 0.741699 7.1688 0.741699 5.7712 1.42798C4.8556 1.87758 4.0953 2.52423 3.56667 3.30295Z" fill="#55565A"/>
<path d="M19.3223 9.27916C19.3223 8.5719 19.9964 7.99854 20.828 7.99854H28.8575C29.6892 7.99854 30.3642 8.5719 30.3642 9.27916C30.3642 9.98642 29.69 10.5598 28.8585 10.5598H20.828C19.9964 10.5598 19.3223 9.98642 19.3223 9.27916Z" fill="#969BA0"/>
</g>
<defs>
<clipPath id="clip0_360_567">
<rect width="40.1524" height="34.15" fill="white" transform="translate(0.751953 0.741699)"/>
</clipPath>
</defs>
</svg>
