<svg width="23" height="24" viewBox="0 0 23 24" fill="none" xmlns="http://www.w3.org/2000/svg">
<path d="M22.6403 22.7761L17.1308 16.9437C18.6087 15.145 19.5035 12.7982 19.5035 10.2333C19.5035 4.58714 15.1653 0 9.83672 0C4.50314 0 0.169922 4.59246 0.169922 10.2333C0.169922 15.8741 4.50817 20.4665 9.83672 20.4665C12.2597 20.4665 14.4766 19.5193 16.1757 17.9548L21.6852 23.7871C21.8159 23.9255 21.9918 24 22.1628 24C22.3337 24 22.5096 23.9308 22.6403 23.7871C22.9017 23.5104 22.9017 23.0528 22.6403 22.7761ZM1.52217 10.2333C1.52217 5.38004 5.25215 1.43681 9.83169 1.43681C14.4163 1.43681 18.1412 5.38537 18.1412 10.2333C18.1412 15.0812 14.4163 19.035 9.83169 19.035C5.25215 19.035 1.52217 15.0865 1.52217 10.2333Z" fill="#A4A4A4"/>
</svg>
