<svg width="106" height="68" viewBox="0 0 106 68" fill="none" xmlns="http://www.w3.org/2000/svg">
<path fill-rule="evenodd" clip-rule="evenodd" d="M103.969 0.927889C105.528 2.2917 105.686 4.66081 104.322 6.21944L51.8222 66.2194C51.1387 67.0005 50.1621 67.4634 49.1248 67.498C48.0875 67.5325 47.0822 67.1356 46.3483 66.4017L23.8483 43.9017C22.3839 42.4372 22.3839 40.0629 23.8483 38.5984C25.3128 37.1339 27.6872 37.1339 29.1517 38.5984L48.8173 58.2641L98.6778 1.28066C100.042 -0.277978 102.411 -0.435919 103.969 0.927889Z" fill="#4BBB85"/>
<path fill-rule="evenodd" clip-rule="evenodd" d="M1.34835 38.5983C2.81282 37.1339 5.18718 37.1339 6.65165 38.5983L29.1516 61.0984C30.6161 62.5628 30.6161 64.9372 29.1516 66.4016C27.6872 67.8661 25.3128 67.8661 23.8484 66.4016L1.34835 43.9017C-0.116117 42.4372 -0.116117 40.0628 1.34835 38.5983Z" fill="#4BBB85"/>
<path fill-rule="evenodd" clip-rule="evenodd" d="M81.4643 0.923406C83.0254 2.28438 83.1877 4.6532 81.8267 6.21431L49.9517 42.7768C48.5907 44.3379 46.2219 44.5002 44.6608 43.1392C43.0997 41.7782 42.9374 39.4094 44.2984 37.8483L76.1734 1.2858C77.5344 -0.275317 79.9032 -0.437565 81.4643 0.923406Z" fill="#4BBB85"/>
</svg>
