<svg width="59" height="58" viewBox="0 0 59 58" fill="none" xmlns="http://www.w3.org/2000/svg">
<path d="M6.01907 3.77699C5.53685 3.77699 5.07438 3.96516 4.7334 4.30012C4.39242 4.63507 4.20086 5.08937 4.20086 5.56307V16.2795C4.20086 16.7532 4.0093 17.2075 3.66832 17.5425C3.32734 17.8774 2.86488 18.0656 2.38266 18.0656C1.90044 18.0656 1.43797 17.8774 1.09699 17.5425C0.756013 17.2075 0.564453 16.7532 0.564453 16.2795V5.56307C0.564453 4.14197 1.13913 2.77909 2.16207 1.77422C3.18501 0.76936 4.57241 0.204834 6.01907 0.204834L16.9283 0.204834C17.4105 0.204834 17.873 0.393009 18.214 0.727964C18.5549 1.06292 18.7465 1.51721 18.7465 1.99091C18.7465 2.46461 18.5549 2.9189 18.214 3.25386C17.873 3.58881 17.4105 3.77699 16.9283 3.77699H6.01907ZM40.565 1.99091C40.565 1.51721 40.7565 1.06292 41.0975 0.727964C41.4385 0.393009 41.901 0.204834 42.3832 0.204834L53.2924 0.204834C54.7391 0.204834 56.1265 0.76936 57.1494 1.77422C58.1723 2.77909 58.747 4.14197 58.747 5.56307V16.2795C58.747 16.7532 58.5555 17.2075 58.2145 17.5425C57.8735 17.8774 57.411 18.0656 56.9288 18.0656C56.4466 18.0656 55.9841 17.8774 55.6431 17.5425C55.3022 17.2075 55.1106 16.7532 55.1106 16.2795V5.56307C55.1106 5.08937 54.919 4.63507 54.5781 4.30012C54.2371 3.96516 53.7746 3.77699 53.2924 3.77699H42.3832C41.901 3.77699 41.4385 3.58881 41.0975 3.25386C40.7565 2.9189 40.565 2.46461 40.565 1.99091ZM2.38266 39.4985C2.86488 39.4985 3.32734 39.6867 3.66832 40.0217C4.0093 40.3566 4.20086 40.8109 4.20086 41.2846V52.0011C4.20086 52.4748 4.39242 52.9291 4.7334 53.264C5.07438 53.599 5.53685 53.7871 6.01907 53.7871H16.9283C17.4105 53.7871 17.873 53.9753 18.214 54.3103C18.5549 54.6452 18.7465 55.0995 18.7465 55.5732C18.7465 56.0469 18.5549 56.5012 18.214 56.8362C17.873 57.1711 17.4105 57.3593 16.9283 57.3593H6.01907C4.57241 57.3593 3.18501 56.7948 2.16207 55.7899C1.13913 54.785 0.564453 53.4222 0.564453 52.0011L0.564453 41.2846C0.564453 40.8109 0.756013 40.3566 1.09699 40.0217C1.43797 39.6867 1.90044 39.4985 2.38266 39.4985ZM56.9288 39.4985C57.411 39.4985 57.8735 39.6867 58.2145 40.0217C58.5555 40.3566 58.747 40.8109 58.747 41.2846V52.0011C58.747 53.4222 58.1723 54.785 57.1494 55.7899C56.1265 56.7948 54.7391 57.3593 53.2924 57.3593H42.3832C41.901 57.3593 41.4385 57.1711 41.0975 56.8362C40.7565 56.5012 40.565 56.0469 40.565 55.5732C40.565 55.0995 40.7565 54.6452 41.0975 54.3103C41.4385 53.9753 41.901 53.7871 42.3832 53.7871H53.2924C53.7746 53.7871 54.2371 53.599 54.5781 53.264C54.919 52.9291 55.1106 52.4748 55.1106 52.0011V41.2846C55.1106 40.8109 55.3022 40.3566 55.6431 40.0217C55.9841 39.6867 56.4466 39.4985 56.9288 39.4985Z" fill="white"/>
<path d="M11.4743 50.215C11.4743 50.215 7.83789 50.215 7.83789 46.6428C7.83789 43.0707 11.4743 32.3542 29.6564 32.3542C47.8384 32.3542 51.4748 43.0707 51.4748 46.6428C51.4748 50.215 47.8384 50.215 47.8384 50.215H11.4743ZM40.5656 18.0656C40.5656 20.9078 39.4162 23.6335 37.3703 25.6433C35.3245 27.653 32.5497 28.782 29.6564 28.782C26.763 28.782 23.9882 27.653 21.9424 25.6433C19.8965 23.6335 18.7471 20.9078 18.7471 18.0656C18.7471 15.2234 19.8965 12.4976 21.9424 10.4879C23.9882 8.47817 26.763 7.34912 29.6564 7.34912C32.5497 7.34912 35.3245 8.47817 37.3703 10.4879C39.4162 12.4976 40.5656 15.2234 40.5656 18.0656Z" fill="white"/>
</svg>
