<svg width="112" height="66" viewBox="0 0 112 66" fill="none" xmlns="http://www.w3.org/2000/svg">
<path d="M29.5435 28.8073C27.872 25.3704 27.0033 21.5986 27.0031 17.7769C27.0031 15.6853 27.3055 13.5361 27.9247 11.2153C28.2019 10.1713 28.5499 9.17286 28.9411 8.20446C27.4399 7.38486 25.7899 6.88086 24.0199 6.88086C17.4559 6.88086 12.1423 13.0645 12.1423 20.7013C12.1423 26.0437 14.7535 30.6673 18.5671 32.9677L2.46909 40.4605C1.46589 40.9321 0.804688 42.0649 0.804688 43.3309V56.0365C0.804688 57.7393 1.99389 59.1193 3.45669 59.1193H12.9715V45.7873C12.9715 41.9029 15.1339 38.3809 18.4903 36.8101L30.8047 31.0753C30.3441 30.3423 29.9231 29.5852 29.5435 28.8073Z" fill="white"/>
<path d="M68.1642 14.7609H109.075H109.082C110.249 14.7609 111.195 13.8141 111.195 12.6477V4.9305C111.195 3.7629 110.248 2.8173 109.082 2.8173L109.075 2.8185V2.8125H63.3594C65.3726 5.46131 66.8134 8.49952 67.5906 11.7345C67.8486 12.8013 68.0358 13.7985 68.1642 14.7609Z" fill="white"/>
<path d="M111.195 52.7235C111.195 51.5559 110.248 50.6103 109.082 50.6103L109.075 50.6115V50.6055H82.4085V61.5123C82.4085 61.8639 82.3893 62.2107 82.3545 62.5527H109.075H109.082C110.25 62.5527 111.195 61.6059 111.195 60.4395V52.7235Z" fill="white"/>
<path d="M109.082 26.7148L109.075 26.716V26.71H66.7326C66.5418 27.2128 66.3402 27.7132 66.1158 28.2088C65.6858 29.1581 65.1952 30.0788 64.647 30.9652L76.9926 36.8548C77.9191 37.3118 78.7621 37.9215 79.4862 38.6584H109.075H109.082C110.249 38.6584 111.195 37.7116 111.195 36.5452V28.828C111.195 27.6604 110.248 26.7148 109.082 26.7148Z" fill="white"/>
<path d="M74.3877 42.2425L60.5265 35.6305L54.6645 32.8345C57.2253 31.2217 59.3037 28.7329 60.6645 25.7341C61.7991 23.2348 62.3862 20.5217 62.3865 17.7769C62.3865 16.1593 62.1309 14.6245 61.7721 13.1413C60.0285 5.9617 54.4209 0.670898 47.6889 0.670898C41.0841 0.670898 35.5617 5.7721 33.7113 12.7489C33.2841 14.3485 32.9889 16.0129 32.9889 17.7757C32.9889 20.8381 33.7041 23.6917 34.9197 26.1757C36.3249 29.0557 38.4069 31.4305 40.9413 32.9569L35.3277 35.5705L21.0165 42.2353C19.7721 42.8173 18.9561 44.2201 18.9561 45.7861V61.5121C18.9561 63.6193 20.4249 65.3293 22.2381 65.3293H73.1385C74.9517 65.3293 76.4205 63.6205 76.4205 61.5121V45.7873C76.4229 44.2261 75.6189 42.8377 74.3877 42.2425Z" fill="white"/>
</svg>
