<svg width="39" height="49" viewBox="0 0 39 49" fill="none" xmlns="http://www.w3.org/2000/svg">
<path d="M26.7744 5.21185H4.95597V43.3148H34.0473V12.3562H26.7744V5.21185ZM4.95597 0.448975H29.1987L38.8958 9.97472V43.3148C38.8958 44.578 38.385 45.7895 37.4757 46.6827C36.5664 47.5759 35.3332 48.0777 34.0473 48.0777H4.95597C3.67005 48.0777 2.43681 47.5759 1.52753 46.6827C0.618249 45.7895 0.107422 44.578 0.107422 43.3148V5.21185C0.107422 3.94865 0.618249 2.7372 1.52753 1.84399C2.43681 0.950776 3.67005 0.448975 4.95597 0.448975ZM9.80452 21.8819H29.1987V26.6448H9.80452V21.8819ZM9.80452 31.4076H29.1987V36.1705H9.80452V31.4076Z" fill="white"/>
</svg>
