<svg width="49" height="49" viewBox="0 0 49 49" fill="none" xmlns="http://www.w3.org/2000/svg">
<path d="M4.1875 2.15625C4.1875 1.61753 3.97349 1.10087 3.59256 0.71994C3.21163 0.339006 2.69497 0.125 2.15625 0.125C1.61753 0.125 1.10087 0.339006 0.71994 0.71994C0.339006 1.10087 0.125 1.61753 0.125 2.15625V38.7188C0.125 41.4124 1.19503 43.9956 3.0997 45.9003C5.00436 47.805 7.58764 48.875 10.2812 48.875H46.8438C47.3825 48.875 47.8991 48.661 48.2801 48.2801C48.661 47.8991 48.875 47.3825 48.875 46.8438C48.875 46.305 48.661 45.7884 48.2801 45.4074C47.8991 45.0265 47.3825 44.8125 46.8438 44.8125H10.2812C8.66509 44.8125 7.11512 44.1705 5.97232 43.0277C4.82952 41.8849 4.1875 40.3349 4.1875 38.7188V2.15625ZM32.625 10.2812C32.625 10.82 32.839 11.3366 33.2199 11.7176C33.6009 12.0985 34.1175 12.3125 34.6562 12.3125H41.9403L28.5625 25.6903L21.8756 18.9994C21.6869 18.8102 21.4628 18.6601 21.216 18.5577C20.9692 18.4553 20.7047 18.4026 20.4375 18.4026C20.1703 18.4026 19.9058 18.4553 19.659 18.5577C19.4122 18.6601 19.1881 18.8102 18.9994 18.9994L8.84312 29.1556C8.65427 29.3445 8.50446 29.5687 8.40225 29.8154C8.30004 30.0622 8.24743 30.3267 8.24743 30.5938C8.24743 30.8608 8.30004 31.1253 8.40225 31.3721C8.50446 31.6188 8.65427 31.843 8.84312 32.0319C9.03198 32.2207 9.25619 32.3705 9.50294 32.4728C9.7497 32.575 10.0142 32.6276 10.2812 32.6276C10.5483 32.6276 10.8128 32.575 11.0596 32.4728C11.3063 32.3705 11.5305 32.2207 11.7194 32.0319L20.4375 23.3097L27.1244 30.0006C27.3131 30.1898 27.5372 30.3399 27.784 30.4423C28.0308 30.5447 28.2953 30.5974 28.5625 30.5974C28.8297 30.5974 29.0942 30.5447 29.341 30.4423C29.5878 30.3399 29.8119 30.1898 30.0006 30.0006L44.8125 15.1847V22.7816C44.8125 23.3203 45.0265 23.8369 45.4074 24.2179C45.7884 24.5988 46.305 24.8128 46.8438 24.8128C47.3825 24.8128 47.8991 24.5988 48.2801 24.2179C48.661 23.8369 48.875 23.3203 48.875 22.7816V10.2812C48.875 9.74253 48.661 9.22587 48.2801 8.84494C47.8991 8.46401 47.3825 8.25 46.8438 8.25H34.6562C34.1175 8.25 33.6009 8.46401 33.2199 8.84494C32.839 9.22587 32.625 9.74253 32.625 10.2812Z" fill="black"/>
</svg>
