<svg width="13" height="15" viewBox="0 0 13 15" fill="none" xmlns="http://www.w3.org/2000/svg">
<path d="M12.5636 6.55826L7.07826 0.951964C7.01213 0.88528 6.93344 0.832352 6.84674 0.796232C6.76004 0.760112 6.66705 0.741516 6.57313 0.741516C6.47921 0.741516 6.38622 0.760112 6.29952 0.796232C6.21282 0.832352 6.13413 0.88528 6.06799 0.951964L0.58265 6.56537C0.449918 6.69917 0.34509 6.85801 0.274253 7.03266C0.203415 7.20731 0.16798 7.3943 0.170004 7.58276V13.5448C0.169453 13.909 0.308577 14.2595 0.558727 14.5242C0.808876 14.789 1.15101 14.9477 1.51466 14.9677H11.6316C11.9953 14.9477 12.3374 14.789 12.5875 14.5242C12.8377 14.2595 12.9768 13.909 12.9763 13.5448V7.58276C12.9768 7.20066 12.8289 6.83329 12.5636 6.55826V6.55826ZM5.15021 13.5448V9.27603H7.99605V13.5448H5.15021ZM11.5533 13.5448H9.41896V8.56457C9.41896 8.37588 9.34401 8.19492 9.21058 8.06149C9.07716 7.92807 8.89619 7.85311 8.7075 7.85311H4.43875C4.25006 7.85311 4.0691 7.92807 3.93568 8.06149C3.80225 8.19492 3.7273 8.37588 3.7273 8.56457V13.5448H1.59292V7.5543L6.57313 2.46737L11.5533 7.58276V13.5448Z" fill="#084453"/>
</svg>
