<svg width="59" height="58" viewBox="0 0 59 58" fill="none" xmlns="http://www.w3.org/2000/svg">
<path d="M38.174 35.4836C37.2301 34.0156 36.7424 32.3091 36.7704 30.5731C36.7984 28.837 37.3411 27.1466 38.3319 25.7087C39.3227 24.2709 40.7187 23.1479 42.349 22.4773C43.9794 21.8067 45.7735 21.6175 47.5116 21.9329C49.2497 22.2483 50.8566 23.0545 52.1355 24.253C53.4144 25.4515 54.3099 26.9903 54.7124 28.681C55.115 30.3716 55.007 32.1409 54.4019 33.7723C53.7967 35.4036 52.7205 36.8263 51.3051 37.8662C55.7233 40.2596 58.5888 44.8569 58.5888 50.3581V55.7163C58.5888 56.19 58.3973 56.6443 58.0563 56.9792C57.7153 57.3142 57.2528 57.5024 56.7706 57.5024C56.2884 57.5024 55.8259 57.3142 55.4849 56.9792C55.144 56.6443 54.9524 56.19 54.9524 55.7163V50.3581C54.9524 44.1997 50.3123 39.6416 44.0432 39.6416C40.734 39.6416 39.3231 39.5702 37.4795 39.2058C32.9339 38.2985 28.9957 35.6336 24.4429 30.0396C24.2804 29.8583 24.157 29.6464 24.0802 29.4168C24.0034 29.1873 23.9748 28.9448 23.9962 28.704C24.0176 28.4633 24.0885 28.2294 24.2046 28.0163C24.3207 27.8033 24.4796 27.6156 24.6717 27.4647C24.8638 27.3137 25.0851 27.2026 25.3221 27.1381C25.5592 27.0736 25.8071 27.057 26.0509 27.0894C26.2947 27.1217 26.5292 27.2023 26.7404 27.3263C26.9515 27.4502 27.1349 27.615 27.2793 27.8106C30.5521 31.8257 33.2903 34.0262 36.1303 35.1085C36.694 35.2943 37.3849 35.405 38.174 35.4836ZM44.665 35.9408C44.9668 35.9766 45.2723 36.0159 45.5777 36.0623L45.8614 36.0694C47.2557 36.0664 48.5959 35.539 49.6067 34.5954C50.6174 33.6519 51.222 32.364 51.2962 30.9963C51.3703 29.6285 50.9085 28.2848 50.0055 27.2411C49.1025 26.1975 47.8269 25.5331 46.4408 25.3846C45.0547 25.2361 43.6633 25.6146 42.5525 26.4424C41.4417 27.2703 40.6957 28.4846 40.4679 29.8359C40.2402 31.1872 40.5478 32.5728 41.3277 33.7082C42.1076 34.8436 43.3041 35.6426 44.665 35.9408ZM35.9703 43.1066C36.4526 43.1066 36.915 43.2948 37.256 43.6297C37.597 43.9647 37.7885 44.419 37.7885 44.8927C37.7616 45.1739 37.7006 45.4509 37.6067 45.7178C36.9558 47.0753 36.7704 48.4827 36.7704 50.3688V55.727C36.7704 56.2007 36.5788 56.655 36.2378 56.99C35.8968 57.3249 35.4344 57.5131 34.9521 57.5131C34.4699 57.5131 34.0075 57.3249 33.6665 56.99C33.3255 56.655 33.1339 56.2007 33.1339 55.727V50.3688C33.1339 48.0219 33.3958 46.1322 34.2503 44.3104C34.3737 43.9588 34.6058 43.6538 34.9142 43.438C35.2225 43.2222 35.5917 43.1064 35.9703 43.1066ZM22.072 20.9664C22.3557 21.3374 22.4813 21.8023 22.4222 22.2627C22.3631 22.7231 22.1239 23.1428 21.7552 23.433C21.3866 23.7231 20.9174 23.861 20.4471 23.8173C19.9769 23.7736 19.5423 23.5519 19.2356 23.199L11.7155 13.965C11.5529 13.7836 11.4295 13.5717 11.3527 13.3421C11.276 13.1126 11.2474 12.8701 11.2688 12.6294C11.2902 12.3886 11.3611 12.1547 11.4772 11.9416C11.5933 11.7286 11.7522 11.5409 11.9443 11.39C12.1364 11.239 12.3577 11.1279 12.5947 11.0634C12.8318 10.9989 13.0797 10.9823 13.3235 11.0147C13.5673 11.047 13.8018 11.1276 14.013 11.2516C14.2241 11.3756 14.4074 11.5403 14.5519 11.7359L22.072 20.9664ZM4.04266 39.6416H24.0429C24.5251 39.6416 24.9876 39.8298 25.3286 40.1647C25.6696 40.4997 25.8611 40.954 25.8611 41.4277C25.8611 41.9014 25.6696 42.3557 25.3286 42.6906C24.9876 43.0256 24.5251 43.2138 24.0429 43.2138H2.22446C1.74224 43.2138 1.27977 43.0256 0.93879 42.6906C0.59781 42.3557 0.40625 41.9014 0.40625 41.4277V2.13398C0.40625 1.66028 0.59781 1.20598 0.93879 0.87103C1.27977 0.536076 1.74224 0.3479 2.22446 0.3479L45.8614 0.3479C46.3436 0.3479 46.8061 0.536076 47.147 0.87103C47.488 1.20598 47.6796 1.66028 47.6796 2.13398V12.8504C47.6796 13.3241 47.488 13.7784 47.147 14.1134C46.8061 14.4483 46.3436 14.6365 45.8614 14.6365C45.3792 14.6365 44.9167 14.4483 44.5757 14.1134C44.2347 13.7784 44.0432 13.3241 44.0432 12.8504V3.92005H4.04266V39.6416Z" fill="white"/>
</svg>
