<svg width="44" height="40" viewBox="0 0 44 40" fill="none" xmlns="http://www.w3.org/2000/svg">
<path d="M30.608 3C31.6432 3.62222 32.4997 4.50186 33.0942 5.5533C33.6886 6.60474 34.0006 7.79217 34 9C34.0006 10.2078 33.6886 11.3953 33.0942 12.4467C32.4997 13.4981 31.6432 14.3778 30.608 15M42 38V36.8C42 32.32 42 30.08 41.128 28.368C40.361 26.8628 39.1372 25.639 37.632 24.872M17 16C17.9193 16 18.8295 15.8189 19.6788 15.4672C20.5281 15.1154 21.2997 14.5998 21.9497 13.9497C22.5998 13.2997 23.1154 12.5281 23.4672 11.6788C23.8189 10.8295 24 9.91925 24 9C24 8.08075 23.8189 7.17049 23.4672 6.32122C23.1154 5.47194 22.5998 4.70026 21.9497 4.05025C21.2997 3.40024 20.5281 2.88463 19.6788 2.53284C18.8295 2.18106 17.9193 2 17 2C15.1435 2 13.363 2.7375 12.0503 4.05025C10.7375 5.36301 10 7.14348 10 9C10 10.8565 10.7375 12.637 12.0503 13.9497C13.363 15.2625 15.1435 16 17 16ZM2 36.8V38H32V36.8C32 32.32 32 30.08 31.128 28.368C30.361 26.8628 29.1372 25.639 27.632 24.872C25.92 24 23.68 24 19.2 24H14.8C10.32 24 8.08 24 6.368 24.872C4.86277 25.639 3.63898 26.8628 2.872 28.368C2 30.08 2 32.32 2 36.8Z" stroke="white" stroke-width="4" stroke-linecap="round" stroke-linejoin="round"/>
</svg>
