<svg width="17" height="20" viewBox="0 0 17 20" fill="none" xmlns="http://www.w3.org/2000/svg">
<path d="M5.43988 8.75C5.26856 8.75 5.10427 8.81585 4.98313 8.93306C4.862 9.05027 4.79395 9.20924 4.79395 9.375C4.79395 9.54076 4.862 9.69973 4.98313 9.81694C5.10427 9.93415 5.26856 10 5.43988 10H11.8992C12.0705 10 12.2348 9.93415 12.3559 9.81694C12.4771 9.69973 12.5451 9.54076 12.5451 9.375C12.5451 9.20924 12.4771 9.05027 12.3559 8.93306C12.2348 8.81585 12.0705 8.75 11.8992 8.75H5.43988ZM4.79395 11.875C4.79395 11.7092 4.862 11.5503 4.98313 11.4331C5.10427 11.3158 5.26856 11.25 5.43988 11.25H11.8992C12.0705 11.25 12.2348 11.3158 12.3559 11.4331C12.4771 11.5503 12.5451 11.7092 12.5451 11.875C12.5451 12.0408 12.4771 12.1997 12.3559 12.3169C12.2348 12.4342 12.0705 12.5 11.8992 12.5H5.43988C5.26856 12.5 5.10427 12.4342 4.98313 12.3169C4.862 12.1997 4.79395 12.0408 4.79395 11.875ZM4.79395 14.375C4.79395 14.2092 4.862 14.0503 4.98313 13.9331C5.10427 13.8158 5.26856 13.75 5.43988 13.75H8.0236C8.19491 13.75 8.3592 13.8158 8.48034 13.9331C8.60147 14.0503 8.66953 14.2092 8.66953 14.375C8.66953 14.5408 8.60147 14.6997 8.48034 14.8169C8.3592 14.9342 8.19491 15 8.0236 15H5.43988C5.26856 15 5.10427 14.9342 4.98313 14.8169C4.862 14.6997 4.79395 14.5408 4.79395 14.375Z" fill="white"/>
<path d="M10.6074 0H3.50218C2.81693 0 2.15975 0.263392 1.67521 0.732233C1.19067 1.20107 0.918457 1.83696 0.918457 2.5V17.5C0.918457 18.163 1.19067 18.7989 1.67521 19.2678C2.15975 19.7366 2.81693 20 3.50218 20H13.8371C14.5223 20 15.1795 19.7366 15.664 19.2678C16.1486 18.7989 16.4208 18.163 16.4208 17.5V5.625L10.6074 0ZM10.6074 1.25V3.75C10.6074 4.24728 10.8116 4.72419 11.175 5.07583C11.5384 5.42746 12.0313 5.625 12.5452 5.625H15.1289V17.5C15.1289 17.8315 14.9928 18.1495 14.7505 18.3839C14.5083 18.6183 14.1797 18.75 13.8371 18.75H3.50218C3.15956 18.75 2.83097 18.6183 2.58869 18.3839C2.34642 18.1495 2.21032 17.8315 2.21032 17.5V2.5C2.21032 2.16848 2.34642 1.85054 2.58869 1.61612C2.83097 1.3817 3.15956 1.25 3.50218 1.25H10.6074Z" fill="white"/>
</svg>
