<svg width="13" height="14" viewBox="0 0 13 14" fill="none" xmlns="http://www.w3.org/2000/svg">
<path fill-rule="evenodd" clip-rule="evenodd" d="M8.54623 0.828533C8.79284 0.570182 9.12727 0.425049 9.47598 0.425049C9.82469 0.425049 10.1591 0.570182 10.4057 0.828533L12.1061 2.6104C12.3527 2.86883 12.4912 3.21928 12.4912 3.5847C12.4912 3.95012 12.3527 4.30058 12.1061 4.55901L11.0633 5.65183L7.50338 1.92135L8.54623 0.828533ZM6.57363 2.89566L0.655823 9.09704C0.409183 9.35542 0.270582 9.70589 0.270508 10.0713V11.8532C0.270508 12.2187 0.409059 12.5692 0.655682 12.8277C0.902305 13.0861 1.2368 13.2313 1.58558 13.2313H3.28596C3.63471 13.2312 3.96915 13.086 4.21571 12.8275L10.1335 6.62614L6.57363 2.89566Z" fill="#4F8EA5"/>
</svg>
