<svg width="20" height="12" viewBox="0 0 20 12" fill="none" xmlns="http://www.w3.org/2000/svg">
<path d="M1.94731 7.31211C1.77243 7.83511 1.20686 8.11766 0.683577 7.94324C0.159997 7.7687 -0.122976 7.20277 0.0515519 6.67919C0.0333444 6.74006 0.0522914 6.67697 0.0522914 6.67697C0.0633438 6.64419 0.0751357 6.61167 0.0872074 6.57926C0.107773 6.52399 0.137333 6.44765 0.176686 6.35321C0.255292 6.16452 0.373411 5.90262 0.537398 5.59189C0.864493 4.97214 1.37956 4.14791 2.13664 3.322C3.66621 1.65338 6.16932 0 9.99339 0C13.8175 0 16.3206 1.65338 17.8502 3.322C18.6073 4.14791 19.1223 4.97214 19.4493 5.59189C19.6134 5.90262 19.7315 6.16452 19.8101 6.35321C19.8494 6.44765 19.879 6.52399 19.8996 6.57926C19.9058 6.59576 19.9264 6.70033 19.9462 6.80078C19.9642 6.89212 19.9815 6.98004 19.9867 6.99519C19.9867 6.99519 20.1536 7.65977 19.3032 7.94324C18.7808 8.1174 18.2162 7.83597 18.0403 7.31449L18.0395 7.31211L18.0387 7.30993L18.0265 7.27646C18.0145 7.2439 17.9941 7.19143 17.9652 7.12192C17.9072 6.9827 17.8145 6.77618 17.6818 6.52477C17.4156 6.0203 16.9938 5.34556 16.3768 4.67251C15.1583 3.34318 13.1645 1.99863 9.99339 1.99863C6.82228 1.99863 4.82849 3.34318 3.60994 4.67251C2.99297 5.34556 2.5712 6.0203 2.30494 6.52477C2.17227 6.77618 2.07958 6.9827 2.02156 7.12192C1.9926 7.19143 1.97239 7.2439 1.96028 7.27646L1.94731 7.31211Z" fill="#212121"/>
<path d="M9.99335 3.99731C7.78572 3.99731 5.99609 5.78694 5.99609 7.99457C5.99609 10.2022 7.78572 11.9918 9.99335 11.9918C12.201 11.9918 13.9906 10.2022 13.9906 7.99457C13.9906 5.78694 12.201 3.99731 9.99335 3.99731ZM7.99472 7.99457C7.99472 6.89076 8.88954 5.99594 9.99335 5.99594C11.0971 5.99594 11.992 6.89076 11.992 7.99457C11.992 9.09837 11.0971 9.99319 9.99335 9.99319C8.88954 9.99319 7.99472 9.09837 7.99472 7.99457Z" fill="#212121"/>
</svg>
