<svg width="59" height="58" viewBox="0 0 59 58" fill="none" xmlns="http://www.w3.org/2000/svg">
<path d="M40.5646 22.0131C40.5646 24.8553 39.4152 27.5811 37.3693 29.5908C35.3234 31.6005 32.5486 32.7296 29.6553 32.7296C26.762 32.7296 23.9872 31.6005 21.9413 29.5908C19.8955 27.5811 18.7461 24.8553 18.7461 22.0131C18.7461 19.1709 19.8955 16.4451 21.9413 14.4354C23.9872 12.4257 26.762 11.2966 29.6553 11.2966C32.5486 11.2966 35.3234 12.4257 37.3693 14.4354C39.4152 16.4451 40.5646 19.1709 40.5646 22.0131Z" fill="white"/>
<path fill-rule="evenodd" clip-rule="evenodd" d="M0.564453 29.1576C0.564453 21.5784 3.62942 14.3097 9.08509 8.9504C14.5408 3.59113 21.9402 0.580322 29.6557 0.580322C37.3712 0.580322 44.7707 3.59113 50.2264 8.9504C55.6821 14.3097 58.747 21.5784 58.747 29.1576C58.747 36.7367 55.6821 44.0054 50.2264 49.3647C44.7707 54.724 37.3712 57.7348 29.6557 57.7348C21.9402 57.7348 14.5408 54.724 9.08509 49.3647C3.62942 44.0054 0.564453 36.7367 0.564453 29.1576ZM29.6557 4.15248C24.8621 4.15273 20.166 5.48261 16.1079 7.98907C12.0498 10.4955 8.79468 14.0767 6.71713 18.3203C4.63958 22.564 3.82408 27.2977 4.3645 31.9765C4.90491 36.6554 6.77927 41.0893 9.77184 44.7679C12.3537 40.6813 18.0374 36.3019 29.6557 36.3019C41.2741 36.3019 46.9541 40.6778 49.5396 44.7679C52.5322 41.0893 54.4066 36.6554 54.947 31.9765C55.4874 27.2977 54.6719 22.564 52.5943 18.3203C50.5168 14.0767 47.2616 10.4955 43.2035 7.98907C39.1454 5.48261 34.4493 4.15273 29.6557 4.15248Z" fill="white"/>
</svg>
