<svg width="15" height="12" viewBox="0 0 15 12" fill="none" xmlns="http://www.w3.org/2000/svg">
<path d="M1.9129 7.197C1.79417 7.66243 1.41019 7.91388 1.05492 7.75866C0.699446 7.60333 0.507329 7.09969 0.62582 6.63374C0.613459 6.68791 0.626322 6.63176 0.626322 6.63176C0.633826 6.60259 0.641832 6.57365 0.650028 6.5448C0.66399 6.49562 0.684059 6.42768 0.710777 6.34364C0.764144 6.17572 0.844338 5.94264 0.955673 5.66612C1.17775 5.11458 1.52744 4.38106 2.04144 3.64606C3.0799 2.1611 4.77933 0.689697 7.37558 0.689697C9.97184 0.689697 11.6713 2.1611 12.7097 3.64606C13.2238 4.38106 13.5734 5.11458 13.7954 5.66612C13.9068 5.94264 13.987 6.17572 14.0404 6.34364C14.0671 6.42768 14.0872 6.49562 14.1012 6.5448C14.1054 6.55949 14.1193 6.65255 14.1328 6.74195C14.145 6.82323 14.1568 6.90147 14.1603 6.91496C14.1603 6.91496 14.2736 7.50639 13.6962 7.75866C13.3416 7.91365 12.9582 7.6632 12.8388 7.19911L12.8383 7.197L12.8377 7.19506L12.8295 7.16527C12.8213 7.13629 12.8075 7.0896 12.7879 7.02774C12.7485 6.90384 12.6855 6.72005 12.5955 6.49632C12.4147 6.04737 12.1283 5.4469 11.7095 4.84792C10.8822 3.66491 9.52853 2.46834 7.37558 2.46834C5.22263 2.46834 3.869 3.66491 3.0417 4.84792C2.62282 5.4469 2.33647 6.04737 2.1557 6.49632C2.06563 6.72005 2.0027 6.90384 1.96331 7.02774C1.94364 7.0896 1.92993 7.13629 1.9217 7.16527L1.9129 7.197Z" fill="#4F8EA5"/>
<path d="M7.37545 4.24683C5.87664 4.24683 4.66162 5.83948 4.66162 7.80412C4.66162 9.76876 5.87664 11.3614 7.37545 11.3614C8.87426 11.3614 10.0893 9.76876 10.0893 7.80412C10.0893 5.83948 8.87426 4.24683 7.37545 4.24683ZM6.01854 7.80412C6.01854 6.82181 6.62606 6.02547 7.37545 6.02547C8.12485 6.02547 8.73237 6.82181 8.73237 7.80412C8.73237 8.78643 8.12485 9.58276 7.37545 9.58276C6.62606 9.58276 6.01854 8.78643 6.01854 7.80412Z" fill="#4F8EA5"/>
</svg>
