<svg width="25" height="23" viewBox="0 0 25 23" fill="none" xmlns="http://www.w3.org/2000/svg">
<path d="M11.7086 4.06531H3.97215C3.38591 4.06531 2.82367 4.27526 2.40914 4.64897C1.9946 5.02268 1.76172 5.52954 1.76172 6.05805V20.0072C1.76172 20.5358 1.9946 21.0426 2.40914 21.4163C2.82367 21.79 3.38591 22 3.97215 22H19.4451C20.0314 22 20.5936 21.79 21.0082 21.4163C21.4227 21.0426 21.6556 20.5358 21.6556 20.0072V13.0327" stroke="black" stroke-width="2" stroke-linecap="round" stroke-linejoin="round"/>
<path d="M19.9973 2.57073C20.437 2.17434 21.0333 1.95166 21.6551 1.95166C22.277 1.95166 22.8733 2.17434 23.313 2.57073C23.7527 2.96711 23.9997 3.50472 23.9997 4.06528C23.9997 4.62585 23.7527 5.16346 23.313 5.55984L12.8134 15.0254L8.39258 16.0217L9.49779 12.0363L19.9973 2.57073Z" stroke="black" stroke-width="2" stroke-linecap="round" stroke-linejoin="round"/>
</svg>
