<svg width="59" height="58" viewBox="0 0 59 58" fill="none" xmlns="http://www.w3.org/2000/svg">
<g clip-path="url(#clip0_342_376)">
<path d="M40.0963 27.9531L40.0684 28.0251C40.0771 28.0034 40.0841 27.9811 40.0928 27.9594L40.0963 27.9531ZM37.1494 41.9251L36.3447 42.9024C37.4327 43.0316 38.4858 43.1831 39.472 43.3665L36.2842 44.2942L40.5391 45.4058L43.7106 44.4233C45.6586 45.0652 48.3559 45.8499 49.2496 46.7421H42.8902L43.5221 48.5573H50.1212C50.1014 49.5804 48.2396 50.4114 46.4615 51.0847L41.9518 50.1268L37.7027 51.6225L42.2409 52.6399C39.5913 53.3486 35.1427 53.7795 31.4597 53.9778L31.3049 51.8974H26.8796L26.7242 53.9778C23.0413 53.7795 18.5932 53.3491 15.943 52.6404L20.4818 51.6225L16.2327 50.1268L11.7224 51.0847C9.96997 50.5617 8.08311 49.5804 8.06333 48.5573H14.663L15.2948 46.7421H8.93549C9.82917 45.8499 12.5265 45.0652 14.4745 44.4233L17.646 45.4058L21.9009 44.2942L18.7131 43.3665C19.7425 43.1796 20.778 43.0258 21.8177 42.9053L21.0247 41.9262C12.4224 42.8047 5.2729 44.6754 3.39825 47.6297C0.408253 52.3381 11.4385 57.0745 28.7257 57.1482C28.9829 57.1608 29.2365 57.1516 29.4763 57.1482C46.7536 57.0705 57.7739 52.3358 54.7863 47.6297C52.9105 44.6742 45.7569 42.803 37.1494 41.9251Z" fill="white"/>
<path d="M29.007 -0.000101083C27.4014 0.0216816 25.8691 0.663554 24.7416 1.78665C23.6141 2.90974 22.982 4.42375 22.9822 6.00112C22.9822 7.59274 23.6258 9.11917 24.7715 10.2446C25.9172 11.3701 27.4711 12.0023 29.0913 12.0023C30.7116 12.0023 32.2655 11.3701 33.4112 10.2446C34.5569 9.11917 35.2005 7.59274 35.2005 6.00112C35.2005 4.4095 34.5569 2.88306 33.4112 1.75762C32.2655 0.632168 30.7116 -0.000101083 29.0913 -0.000101083C29.0632 -0.000291827 29.0351 -0.000291827 29.007 -0.000101083ZM28.9738 13.4838C24.4158 13.4849 19.8997 15.4087 20.3744 19.2541L21.5381 27.6129C21.7423 29.0835 22.7541 31.4349 24.2651 31.4349H24.3727L25.6103 45.4554C25.6638 46.087 26.1293 46.5985 26.7739 46.5985H31.4285C32.0732 46.5985 32.5387 46.087 32.5922 45.4554L33.8297 31.4354H33.938C35.449 31.4354 36.4602 29.0835 36.665 27.6129L37.8286 19.2541C38.1335 15.4053 33.5324 13.4832 28.9738 13.4838ZM-92.6557 35.3311L-92.6836 35.4031C-92.6743 35.3814 -92.6679 35.3597 -92.6586 35.3374C-92.6586 35.3351 -92.6562 35.3334 -92.6551 35.3316L-92.6557 35.3311Z" fill="white"/>
</g>
<defs>
<clipPath id="clip0_342_376">
<rect width="58.1826" height="57.1545" fill="white"/>
</clipPath>
</defs>
</svg>
