<svg width="70" height="62" viewBox="0 0 70 62" fill="none" xmlns="http://www.w3.org/2000/svg">
<path d="M12.1848 21.9946C12.1848 21.9946 3.80631 25.5668 2.41016 38.0693M57.8 21.9946C57.8 21.9946 66.1785 25.5668 67.5746 38.0693M25.2177 21.9946C25.2177 21.9946 33.0375 24.079 34.9924 34.4972C36.9473 24.079 44.7671 21.9946 44.7671 21.9946M28.4759 48.7858C28.4759 48.7858 21.6337 50.1253 18.7013 59.5023M41.5088 48.7858C41.5088 48.7858 48.3511 50.1253 51.2835 59.5023" stroke="white" stroke-width="4" stroke-linecap="round"/>
<path d="M34.9932 52.3581C39.4919 52.3581 43.1388 48.3598 43.1388 43.4277C43.1388 38.4956 39.4919 34.4973 34.9932 34.4973C30.4945 34.4973 26.8477 38.4956 26.8477 43.4277C26.8477 48.3598 30.4945 52.3581 34.9932 52.3581Z" stroke="white" stroke-width="4" stroke-linecap="round" stroke-linejoin="round"/>
<path d="M51.2844 23.7808C56.6828 23.7808 61.0591 18.9829 61.0591 13.0644C61.0591 7.14582 56.6828 2.3479 51.2844 2.3479C45.886 2.3479 41.5098 7.14582 41.5098 13.0644C41.5098 18.9829 45.886 23.7808 51.2844 23.7808Z" stroke="white" stroke-width="4" stroke-linecap="round" stroke-linejoin="round"/>
<path d="M18.7005 23.7808C24.0989 23.7808 28.4751 18.9829 28.4751 13.0644C28.4751 7.14582 24.0989 2.3479 18.7005 2.3479C13.3021 2.3479 8.92578 7.14582 8.92578 13.0644C8.92578 18.9829 13.3021 23.7808 18.7005 23.7808Z" stroke="white" stroke-width="4" stroke-linecap="round" stroke-linejoin="round"/>
</svg>
