<svg width="59" height="58" viewBox="0 0 59 58" fill="none" xmlns="http://www.w3.org/2000/svg">
<path d="M27.2738 24.1122V3.57227H10.4555C10.0938 3.57227 9.74694 3.7134 9.4912 3.96461C9.23547 4.21583 9.0918 4.55655 9.0918 4.91182V52.2429C9.0918 52.5981 9.23547 52.9389 9.4912 53.1901C9.74694 53.4413 10.0938 53.5824 10.4555 53.5824H47.7287C48.0903 53.5824 48.4372 53.4413 48.6929 53.1901C48.9486 52.9389 49.0923 52.5981 49.0923 52.2429V25.0052H28.1829C27.9418 25.0052 27.7106 24.9111 27.5401 24.7436C27.3696 24.5762 27.2738 24.349 27.2738 24.1122Z" fill="white"/>
<path d="M30.9102 4.65386V20.9864C30.9102 21.1048 30.958 21.2184 31.0433 21.3022C31.1285 21.3859 31.2442 21.4329 31.3647 21.4329H47.9911C48.036 21.433 48.0799 21.4199 48.1173 21.3955C48.1546 21.371 48.1838 21.3362 48.201 21.2955C48.2183 21.2548 48.2229 21.2099 48.2143 21.1667C48.2056 21.1234 48.1841 21.0836 48.1524 21.0523L31.2977 4.49534C31.2658 4.46424 31.2253 4.44311 31.1812 4.4346C31.1372 4.4261 31.0915 4.43062 31.0501 4.44758C31.0086 4.46453 30.9732 4.49318 30.9483 4.52989C30.9234 4.5666 30.9101 4.60974 30.9102 4.65386Z" fill="white"/>
</svg>
