<svg width="57" height="51" viewBox="0 0 57 51" fill="none" xmlns="http://www.w3.org/2000/svg">
<path d="M52.875 6.25H56.9375V22.5H52.875V6.25ZM42.7188 0.15625H46.7812V22.5H42.7188V0.15625ZM32.5625 10.3125H36.625V22.5H32.5625V10.3125ZM28.5 50.9375H24.4375V38.75C24.4359 37.1343 23.7934 35.5853 22.6509 34.4428C21.5084 33.3004 19.9594 32.6579 18.3438 32.6562H10.2188C8.60308 32.6579 7.05405 33.3004 5.9116 34.4428C4.76915 35.5853 4.12661 37.1343 4.125 38.75V50.9375H0.0625V38.75C0.0657253 36.0574 1.13679 33.476 3.04076 31.572C4.94473 29.668 7.52613 28.597 10.2188 28.5938H18.3438C21.0364 28.597 23.6178 29.668 25.5217 31.572C27.4257 33.476 28.4968 36.0574 28.5 38.75V50.9375ZM14.2812 8.28125C15.4865 8.28125 16.6646 8.63864 17.6668 9.30823C18.6689 9.97782 19.4499 10.9295 19.9111 12.043C20.3724 13.1565 20.493 14.3818 20.2579 15.5638C20.0228 16.7459 19.4424 17.8317 18.5902 18.6839C17.738 19.5362 16.6522 20.1165 15.4701 20.3517C14.288 20.5868 13.0628 20.4661 11.9493 20.0049C10.8358 19.5437 9.88407 18.7626 9.21448 17.7605C8.54489 16.7584 8.1875 15.5802 8.1875 14.375C8.1875 12.7588 8.82952 11.2089 9.97232 10.0661C11.1151 8.92327 12.6651 8.28125 14.2812 8.28125ZM14.2812 4.21875C12.2725 4.21875 10.3089 4.8144 8.63874 5.93039C6.96855 7.04637 5.6668 8.63256 4.8981 10.4884C4.1294 12.3442 3.92827 14.3863 4.32015 16.3564C4.71203 18.3265 5.67932 20.1362 7.0997 21.5566C8.52007 22.9769 10.3297 23.9442 12.2999 24.3361C14.27 24.728 16.3121 24.5269 18.1679 23.7582C20.0237 22.9895 21.6099 21.6877 22.7259 20.0175C23.8418 18.3473 24.4375 16.3837 24.4375 14.375C24.4375 13.0413 24.1748 11.7206 23.6644 10.4884C23.154 9.25616 22.4059 8.13654 21.4628 7.19345C20.5197 6.25035 19.4001 5.50225 18.1679 4.99185C16.9357 4.48145 15.615 4.21875 14.2812 4.21875Z" fill="black"/>
</svg>
