<svg width="40" height="40" viewBox="0 0 40 40" fill="none" xmlns="http://www.w3.org/2000/svg">
<circle cx="20" cy="20" r="20" fill="#EDEDED"/>
<g clip-path="url(#clip0_558_1933)">
<path d="M28.5206 23.2101L26.7206 21.4001V16.9401C26.7445 15.284 26.1684 13.675 25.0987 12.4105C24.0289 11.1459 22.5378 10.3111 20.9006 10.0601C19.9504 9.93501 18.9844 10.014 18.0672 10.2917C17.1499 10.5695 16.3024 11.0397 15.5813 11.6709C14.8601 12.3021 14.2819 13.0799 13.8852 13.9523C13.4884 14.8248 13.2823 15.7717 13.2806 16.7301V21.4001L11.4806 23.2101C11.2545 23.44 11.1011 23.7314 11.0398 24.0479C10.9784 24.3645 11.0117 24.6921 11.1354 24.9898C11.2592 25.2875 11.468 25.5421 11.7357 25.7218C12.0034 25.9015 12.3181 25.9983 12.6406 26.0001H16.0006V26.3401C16.0473 27.3553 16.4945 28.3106 17.2443 28.9967C17.9941 29.6827 18.9852 30.0436 20.0006 30.0001C21.0159 30.0436 22.0071 29.6827 22.7568 28.9967C23.5066 28.3106 23.9539 27.3553 24.0006 26.3401V26.0001H27.3606C27.683 25.9983 27.9977 25.9015 28.2654 25.7218C28.5331 25.5421 28.7419 25.2875 28.8657 24.9898C28.9895 24.6921 29.0227 24.3645 28.9614 24.0479C28.9 23.7314 28.7467 23.44 28.5206 23.2101ZM22.0006 26.3401C21.9451 26.8211 21.7062 27.2622 21.3336 27.5714C20.9611 27.8807 20.4835 28.0342 20.0006 28.0001C19.5176 28.0342 19.0401 27.8807 18.6675 27.5714C18.2949 27.2622 18.056 26.8211 18.0006 26.3401V26.0001H22.0006V26.3401ZM13.5106 24.0001L14.6906 22.8201C14.8777 22.6341 15.0262 22.4128 15.1275 22.1691C15.2287 21.9254 15.2808 21.6641 15.2806 21.4001V16.7301C15.2811 16.0555 15.4259 15.3889 15.7054 14.7748C15.9848 14.1608 16.3923 13.6137 16.9006 13.1701C17.402 12.7158 17.9961 12.3759 18.6419 12.1739C19.2877 11.9719 19.9696 11.9126 20.6406 12.0001C21.797 12.1879 22.8468 12.7871 23.5965 13.6875C24.3461 14.5879 24.7453 15.7288 24.7206 16.9001V21.4001C24.719 21.6634 24.7695 21.9243 24.869 22.168C24.9685 22.4116 25.1152 22.6333 25.3006 22.8201L26.4906 24.0001H13.5106Z" fill="#091913"/>
</g>
<defs>
<clipPath id="clip0_558_1933">
<rect width="24" height="24" fill="white" transform="translate(8 8)"/>
</clipPath>
</defs>
</svg>
