<svg width="15" height="17" viewBox="0 0 15 17" fill="none" xmlns="http://www.w3.org/2000/svg">
<path d="M10.8004 10.2498C11.8312 10.2499 12.8221 10.6496 13.5666 11.3657C14.3111 12.0818 14.7517 13.0589 14.7964 14.0933L14.8004 14.2676V15.0712C14.8005 15.4767 14.6481 15.8672 14.3736 16.1645C14.0991 16.4618 13.7229 16.6439 13.3204 16.6743L13.2004 16.6784H2.00039C1.59673 16.6785 1.20794 16.5254 0.911952 16.2497C0.615967 15.974 0.434665 15.5961 0.404391 15.1918L0.400391 15.0712V14.2676C0.40045 13.2323 0.798424 12.2369 1.51132 11.4891C2.22421 10.7413 3.19699 10.2987 4.22679 10.2538L4.40039 10.2498H10.8004ZM7.60039 0.606934C8.66126 0.606934 9.67867 1.03024 10.4288 1.78374C11.179 2.53723 11.6004 3.55919 11.6004 4.62479C11.6004 5.69039 11.179 6.71235 10.4288 7.46584C9.67867 8.21934 8.66126 8.64265 7.60039 8.64265C6.53952 8.64265 5.52211 8.21934 4.77196 7.46584C4.02182 6.71235 3.60039 5.69039 3.60039 4.62479C3.60039 3.55919 4.02182 2.53723 4.77196 1.78374C5.52211 1.03024 6.53952 0.606934 7.60039 0.606934Z" fill="#4F8EA5"/>
</svg>
