<svg width="70" height="58" viewBox="0 0 70 58" fill="none" xmlns="http://www.w3.org/2000/svg">
<path d="M69.8191 54.773C69.8191 55.418 69.6032 55.9762 69.1713 56.4475C68.7395 56.9188 68.2282 57.1545 67.6372 57.1545C67.0463 57.1545 66.535 56.9188 66.1031 56.4475C65.6713 55.9762 65.4554 55.418 65.4554 54.773V23.4423L41.3869 36.6146C39.5687 37.6068 37.4096 38.103 34.9095 38.103C32.4095 38.103 30.2504 37.6068 28.4322 36.6146L2.65913 22.5492C0.886375 21.557 0 20.3786 0 19.0143C0 17.6499 0.886375 16.4964 2.65913 15.5538L28.4322 1.4884C30.2504 0.496133 32.4095 0 34.9095 0C37.4096 0 39.5687 0.496133 41.3869 1.4884L67.16 15.5538C68.7054 16.3972 69.5691 17.4391 69.7509 18.6794C69.7964 18.729 69.8191 18.8282 69.8191 18.9771V54.773ZM43.5687 41.3775L56.728 34.1587V44.6519C56.728 46.7853 54.603 48.6086 50.3529 50.1218C46.1029 51.635 40.9551 52.3916 34.9095 52.3916C28.864 52.3916 23.7162 51.635 19.4662 50.1218C15.2161 48.6086 13.0911 46.7853 13.0911 44.6519V34.1587L26.2503 41.3775C28.0685 42.3697 30.9549 42.8658 34.9095 42.8658C38.8641 42.8658 41.7505 42.3697 43.5687 41.3775Z" fill="white"/>
</svg>
