<svg width="44" height="47" viewBox="0 0 44 47" fill="none" xmlns="http://www.w3.org/2000/svg">
<path fill-rule="evenodd" clip-rule="evenodd" d="M22.0913 0.358155C18.9212 0.357941 15.81 1.19997 13.0874 2.79506C10.3647 4.39015 8.13188 6.67891 6.62542 9.41892C5.11896 12.1589 4.39494 15.2482 4.53005 18.3594C4.66517 21.4707 5.65437 24.4881 7.3929 27.0922L1.12131 37.761C0.947208 38.0581 0.863835 38.3982 0.881145 38.7406C0.898455 39.083 1.01572 39.4133 1.21893 39.692C1.42214 39.9707 1.70272 40.1861 2.02716 40.3124C2.3516 40.4387 2.70619 40.4707 3.04861 40.4044L9.38566 39.1803L11.473 45.1815C11.5854 45.5067 11.791 45.7931 12.0649 46.0064C12.3388 46.2197 12.6696 46.351 13.0175 46.3844C13.3654 46.4178 13.7157 46.352 14.0266 46.1948C14.3374 46.0377 14.5955 45.7958 14.77 45.4983L21.0246 34.858C21.7351 34.9001 22.4475 34.9001 23.158 34.858L29.4126 45.4983C29.5873 45.7958 29.8456 46.0375 30.1565 46.1945C30.4675 46.3515 30.8179 46.417 31.1659 46.3834C31.5138 46.3497 31.8445 46.2182 32.1183 46.0046C32.3921 45.791 32.5974 45.5044 32.7096 45.1792L34.7896 39.1637L41.1315 40.402C41.4741 40.4688 41.8291 40.4373 42.1539 40.3113C42.4788 40.1852 42.7598 39.9698 42.9633 39.691C43.1669 39.4122 43.2843 39.0816 43.3017 38.739C43.3191 38.3963 43.2356 38.0559 43.0612 37.7586L36.7921 27.0922C38.5307 24.488 39.5199 21.4703 39.6549 18.3588C39.79 15.2474 39.0657 12.158 37.559 9.41787C36.0522 6.67779 33.8191 4.38906 31.0961 2.79415C28.3731 1.19923 25.2616 0.357511 22.0913 0.358155ZM8.1517 17.6236C8.1517 13.9919 9.62033 10.509 12.2345 7.94097C14.8487 5.37299 18.3943 3.93031 22.0913 3.93031C25.7883 3.93031 29.3339 5.37299 31.948 7.94097C34.5622 10.509 36.0308 13.9919 36.0308 17.6236C36.0308 21.2552 34.5622 24.7382 31.948 27.3062C29.3339 29.8741 25.7883 31.3168 22.0913 31.3168C18.3943 31.3168 14.8487 29.8741 12.2345 27.3062C9.62033 24.7382 8.1517 21.2552 8.1517 17.6236ZM17.2039 34.2126C14.4464 33.4282 11.9268 31.9915 9.86566 30.0285L6.27289 36.1416L10.2414 35.3748C10.6727 35.2916 11.12 35.3647 11.5006 35.5806C11.8812 35.7964 12.1694 36.1404 12.3118 36.5488L13.6209 40.3091L17.2039 34.2126ZM30.5568 40.2996L26.9786 34.2126C29.7361 33.4281 32.2557 31.9914 34.3169 30.0285L37.9048 36.1321L33.9339 35.3557C33.5013 35.2716 33.0523 35.3448 32.6705 35.5616C32.2887 35.7785 32.0002 36.1243 31.8587 36.5345L30.5568 40.2996Z" fill="white"/>
</svg>
