<svg width="12" height="16" viewBox="0 0 12 16" fill="none" xmlns="http://www.w3.org/2000/svg">
<path d="M11.9832 4.74932V14.0427C11.9832 14.5616 11.7771 15.0593 11.4102 15.4262C11.0432 15.7931 10.5456 15.9993 10.0267 15.9993H2.20065C1.68175 15.9993 1.18411 15.7931 0.817189 15.4262C0.450272 15.0593 0.244141 14.5616 0.244141 14.0427V2.30368C0.244141 1.78478 0.450272 1.28713 0.817189 0.920217C1.18411 0.5533 1.68175 0.347168 2.20065 0.347168L7.58105 0.347168L11.9832 4.74932ZM9.04844 4.74932C8.65926 4.74932 8.28603 4.59472 8.01084 4.31953C7.73565 4.04434 7.58105 3.67111 7.58105 3.28193V1.32542H2.20065C1.9412 1.32542 1.69238 1.42849 1.50892 1.61195C1.32546 1.79541 1.2224 2.04423 1.2224 2.30368V14.0427C1.2224 14.3022 1.32546 14.551 1.50892 14.7345C1.69238 14.9179 1.9412 15.021 2.20065 15.021H10.0267C10.2861 15.021 10.535 14.9179 10.7184 14.7345C10.9019 14.551 11.0049 14.3022 11.0049 14.0427V4.74932H9.04844Z" fill="white"/>
<path d="M2.20117 6.70563C2.20117 6.57591 2.2527 6.4515 2.34443 6.35977C2.43616 6.26804 2.56057 6.2165 2.6903 6.2165H9.53809C9.66781 6.2165 9.79222 6.26804 9.88395 6.35977C9.97568 6.4515 10.0272 6.57591 10.0272 6.70563V13.5534C10.0272 13.6831 9.97568 13.8076 9.88395 13.8993C9.79222 13.991 9.66781 14.0425 9.53809 14.0425H2.6903C2.56057 14.0425 2.43616 13.991 2.34443 13.8993C2.2527 13.8076 2.20117 13.6831 2.20117 13.5534V6.70563ZM2.20117 3.77087C2.20117 3.64114 2.2527 3.51673 2.34443 3.425C2.43616 3.33327 2.56057 3.28174 2.6903 3.28174H5.13594C5.26566 3.28174 5.39007 3.33327 5.4818 3.425C5.57353 3.51673 5.62507 3.64114 5.62507 3.77087C5.62507 3.90059 5.57353 4.025 5.4818 4.11673C5.39007 4.20846 5.26566 4.25999 5.13594 4.25999H2.6903C2.56057 4.25999 2.43616 4.20846 2.34443 4.11673C2.2527 4.025 2.20117 3.90059 2.20117 3.77087Z" fill="white"/>
</svg>
