<svg width="54" height="53" viewBox="0 0 54 53" fill="none" xmlns="http://www.w3.org/2000/svg">
<path d="M27.0908 48.0101C29.9561 48.0101 32.7933 47.4557 35.4404 46.3786C38.0875 45.3015 40.4928 43.7227 42.5188 41.7325C44.5448 39.7423 46.152 37.3795 47.2485 34.7792C48.3449 32.1788 48.9093 29.3918 48.9093 26.5771C48.9093 23.7625 48.3449 20.9755 47.2485 18.3751C46.152 15.7748 44.5448 13.412 42.5188 11.4218C40.4928 9.43155 38.0875 7.85281 35.4404 6.7757C32.7933 5.6986 29.9561 5.14422 27.0908 5.14422C21.3042 5.14422 15.7546 7.40232 11.6629 11.4218C7.5711 15.4412 5.27238 20.8928 5.27238 26.5771C5.27238 32.2615 7.5711 37.7131 11.6629 41.7325C15.7546 45.752 21.3042 48.0101 27.0908 48.0101ZM53.7578 26.5771C53.7578 41.0444 41.8183 52.7729 27.0908 52.7729C12.3634 52.7729 0.423828 41.0444 0.423828 26.5771C0.423828 12.1099 12.3634 0.381348 27.0908 0.381348C41.8183 0.381348 53.7578 12.1099 53.7578 26.5771ZM34.3637 37.0888L24.6666 27.5631V11.0978H29.5151V25.5912L37.7916 33.7215L34.3637 37.0888Z" fill="white"/>
</svg>
