<svg width="53" height="59" viewBox="0 0 53 59" fill="none" xmlns="http://www.w3.org/2000/svg">
<path d="M37.9901 30.1569C39.5014 28.6497 40.6999 26.8587 41.5167 24.8868C42.3336 22.915 42.7527 20.8011 42.75 18.6667C42.75 9.69269 35.4741 2.41675 26.5 2.41675C17.5259 2.41675 10.25 9.69269 10.25 18.6667C10.25 23.1545 12.0686 27.217 15.0099 30.1569" stroke="black" stroke-width="4" stroke-linecap="round"/>
<path d="M2.125 56.5834L3.47917 49.8126L18.375 38.9792L26.5 47.1042L34.625 38.9792L49.5208 49.8126L50.875 56.5834" stroke="black" stroke-width="4" stroke-linecap="round" stroke-linejoin="round"/>
<path d="M11.5947 25.4472C11.6123 19.8816 12.5183 15.815 14.3125 13.2502C17.0046 9.40301 18.8991 9.68603 20.2776 10.2846C21.6575 10.8845 22.4687 14.7994 24.7721 15.9287C27.0742 17.0568 32.9702 17.1962 34.9893 18.5545C37.007 19.9113 41.6247 22.4369 40.4737 26.7485" stroke="black" stroke-width="4"/>
</svg>
