<svg width="53" height="57" viewBox="0 0 53 57" fill="none" xmlns="http://www.w3.org/2000/svg">
<ellipse cx="26.491" cy="29.4297" rx="25.7742" ry="26.6297" fill="#EFEFEF"/>
<g clip-path="url(#clip0_553_1868)">
<path d="M26.493 9.77441C28.6414 9.77441 30.7018 10.7497 32.2209 12.4857C33.7401 14.2217 34.5935 16.5763 34.5935 19.0314C34.5935 21.4865 33.7401 23.8411 32.2209 25.5771C30.7018 27.3131 28.6414 28.2884 26.493 28.2884C24.3447 28.2884 22.2843 27.3131 20.7651 25.5771C19.246 23.8411 18.3926 21.4865 18.3926 19.0314C18.3926 16.5763 19.246 14.2217 20.7651 12.4857C22.2843 10.7497 24.3447 9.77441 26.493 9.77441ZM26.493 32.9169C35.444 32.9169 43.4304 36.4889 43.4304 41.6034L43.7986 49.2118C43.7986 49.2118 39.2079 53.1743 35.6981 54.5378C32.2905 55.8615 26.493 56.0595 26.493 56.0595C26.493 56.0595 20.6956 55.8615 17.288 54.5378C13.7782 53.1743 9.1875 49.2118 9.1875 49.2118L9.5557 42.3642C9.5557 37.2497 17.542 32.9169 26.493 32.9169Z" fill="white"/>
</g>
<defs>
<clipPath id="clip0_553_1868">
<rect width="48.6028" height="55.5419" fill="white" transform="translate(2.19141 0.517334)"/>
</clipPath>
</defs>
</svg>
