<svg width="40" height="49" viewBox="0 0 40 49" fill="none" xmlns="http://www.w3.org/2000/svg">
<path d="M9.18298 12.0746H16.4558M9.18298 24.5772H31.0014M9.18298 31.7215H31.0014M9.18298 38.8658H16.4558M5.54657 47.7962H34.6378C35.6023 47.7962 36.5272 47.4198 37.2092 46.7499C37.8911 46.08 38.2743 45.1714 38.2743 44.224V4.93031C38.2743 3.98291 37.8911 3.07432 37.2092 2.40441C36.5272 1.73451 35.6023 1.35815 34.6378 1.35815H5.54657C4.58213 1.35815 3.6572 1.73451 2.97524 2.40441C2.29328 3.07432 1.91016 3.98291 1.91016 4.93031V44.224C1.91016 45.1714 2.29328 46.08 2.97524 46.7499C3.6572 47.4198 4.58213 47.7962 5.54657 47.7962Z" stroke="white" stroke-width="2" stroke-linecap="round" stroke-linejoin="round"/>
</svg>
