<svg width="17" height="16" viewBox="0 0 17 16" fill="none" xmlns="http://www.w3.org/2000/svg">
<path d="M14.5539 1.59047C14.8175 1.59047 15.0703 1.68612 15.2567 1.85637C15.443 2.02663 15.5477 2.25754 15.5477 2.49832V13.3925C15.5477 13.6333 15.443 13.8642 15.2567 14.0345C15.0703 14.2047 14.8175 14.3004 14.5539 14.3004H2.62824C2.36467 14.3004 2.11189 14.2047 1.92551 14.0345C1.73914 13.8642 1.63443 13.6333 1.63443 13.3925V2.49832C1.63443 2.25754 1.73914 2.02663 1.92551 1.85637C2.11189 1.68612 2.36467 1.59047 2.62824 1.59047H14.5539ZM2.62824 0.682617C2.10109 0.682617 1.59553 0.873914 1.22278 1.21442C0.850034 1.55493 0.640625 2.01676 0.640625 2.49832L0.640625 13.3925C0.640625 13.8741 0.850034 14.3359 1.22278 14.6764C1.59553 15.0169 2.10109 15.2082 2.62824 15.2082H14.5539C15.0811 15.2082 15.5866 15.0169 15.9594 14.6764C16.3321 14.3359 16.5415 13.8741 16.5415 13.3925V2.49832C16.5415 2.01676 16.3321 1.55493 15.9594 1.21442C15.5866 0.873914 15.0811 0.682617 14.5539 0.682617H2.62824Z" fill="white"/>
<path d="M8.59242 4.31396C8.7242 4.31396 8.85059 4.36179 8.94378 4.44692C9.03697 4.53204 9.08932 4.6475 9.08932 4.76789V7.49144H12.0707C12.2025 7.49144 12.3289 7.53927 12.4221 7.62439C12.5153 7.70952 12.5676 7.82498 12.5676 7.94537C12.5676 8.06576 12.5153 8.18121 12.4221 8.26634C12.3289 8.35147 12.2025 8.39929 12.0707 8.39929H9.08932V11.1228C9.08932 11.2432 9.03697 11.3587 8.94378 11.4438C8.85059 11.5289 8.7242 11.5768 8.59242 11.5768C8.46063 11.5768 8.33424 11.5289 8.24105 11.4438C8.14786 11.3587 8.09551 11.2432 8.09551 11.1228V8.39929H5.11409C4.9823 8.39929 4.85591 8.35147 4.76273 8.26634C4.66954 8.18121 4.61719 8.06576 4.61719 7.94537C4.61719 7.82498 4.66954 7.70952 4.76273 7.62439C4.85591 7.53927 4.9823 7.49144 5.11409 7.49144H8.09551V4.76789C8.09551 4.6475 8.14786 4.53204 8.24105 4.44692C8.33424 4.36179 8.46063 4.31396 8.59242 4.31396Z" fill="white"/>
</svg>
