<svg width="3" height="13" viewBox="0 0 3 13" fill="none" xmlns="http://www.w3.org/2000/svg">
<path d="M1.71546 3.17924C2.37164 3.17924 2.90358 2.66163 2.90358 2.02312C2.90358 1.38462 2.37164 0.867004 1.71546 0.867004C1.05928 0.867004 0.527344 1.38462 0.527344 2.02312C0.527344 2.66163 1.05928 3.17924 1.71546 3.17924Z" fill="black"/>
<path d="M1.71546 7.80369C2.37164 7.80369 2.90358 7.28608 2.90358 6.64757C2.90358 6.00907 2.37164 5.49146 1.71546 5.49146C1.05928 5.49146 0.527344 6.00907 0.527344 6.64757C0.527344 7.28608 1.05928 7.80369 1.71546 7.80369Z" fill="black"/>
<path d="M1.71546 12.4281C2.37164 12.4281 2.90358 11.9105 2.90358 11.272C2.90358 10.6335 2.37164 10.1159 1.71546 10.1159C1.05928 10.1159 0.527344 10.6335 0.527344 11.272C0.527344 11.9105 1.05928 12.4281 1.71546 12.4281Z" fill="black"/>
</svg>
