<svg width="65" height="47" viewBox="0 0 65 47" fill="none" xmlns="http://www.w3.org/2000/svg">
<path d="M19.5 23.5C25.7867 23.5 30.875 18.4117 30.875 12.125C30.875 5.83828 25.7867 0.75 19.5 0.75C13.2133 0.75 8.125 5.83828 8.125 12.125C8.125 18.4117 13.2133 23.5 19.5 23.5ZM27.3 26.75H26.457C24.3445 27.7656 21.9984 28.375 19.5 28.375C17.0016 28.375 14.6656 27.7656 12.543 26.75H11.7C5.24062 26.75 0 31.9906 0 38.45V41.375C0 44.0664 2.18359 46.25 4.875 46.25H34.125C36.8164 46.25 39 44.0664 39 41.375V38.45C39 31.9906 33.7594 26.75 27.3 26.75ZM48.75 23.5C54.1328 23.5 58.5 19.1328 58.5 13.75C58.5 8.36719 54.1328 4 48.75 4C43.3672 4 39 8.36719 39 13.75C39 19.1328 43.3672 23.5 48.75 23.5ZM53.625 26.75H53.2391C51.8273 27.2375 50.3344 27.5625 48.75 27.5625C47.1656 27.5625 45.6727 27.2375 44.2609 26.75H43.875C41.8031 26.75 39.8937 27.3492 38.218 28.3141C40.6961 30.9852 42.25 34.5297 42.25 38.45V42.35C42.25 42.5734 42.1992 42.7867 42.1891 43H60.125C62.8164 43 65 40.8164 65 38.125C65 31.8383 59.9117 26.75 53.625 26.75Z" fill="black"/>
</svg>
