<svg width="50" height="40" viewBox="0 0 50 40" fill="none" xmlns="http://www.w3.org/2000/svg">
<path d="M24.475 14.542C24.8705 14.542 25.1982 14.6607 25.5652 14.9902L32.7616 21.9295C33.0759 22.2429 33.2643 22.5777 33.2643 23.0384C33.2643 23.8955 32.6366 24.5027 31.758 24.5027C31.3384 24.5027 30.9 24.3357 30.6062 24.0009L27.4268 20.633L26.0036 19.1473L26.15 22.2652V38.392C26.15 39.2714 25.3759 40.0036 24.4759 40.0036C23.5768 40.0036 22.8232 39.2714 22.8232 38.392V22.2643L22.9482 19.1464L21.5259 20.6321L18.3652 24.0009C18.2224 24.1588 18.0481 24.2851 17.8536 24.3717C17.6591 24.4582 17.4486 24.5032 17.2357 24.5036C16.3571 24.5036 15.7089 23.8964 15.7089 23.0384C15.7089 22.5777 15.8759 22.2437 16.1893 21.9295L23.2625 15.108C23.6812 14.6884 24.0571 14.542 24.4768 14.542M28.7062 0C36.3018 0 42.4589 6.15714 42.4589 13.7518C42.4589 14.1839 42.4384 14.6116 42.4 15.033C46.242 15.9384 49.1018 19.3902 49.1018 23.508C49.1018 28.317 45.2036 32.2152 40.3946 32.2152H30.35V28.867H40.3929C41.0966 28.867 41.7935 28.7284 42.4436 28.459C43.0938 28.1897 43.6846 27.795 44.1822 27.2974C44.6798 26.7997 45.0745 26.209 45.3439 25.5588C45.6132 24.9086 45.7518 24.2118 45.7518 23.508C45.7515 22.3016 45.3445 21.1306 44.5965 20.1841C43.8485 19.2376 42.8032 18.571 41.6295 18.292L38.7955 17.6241L39.0634 14.725C39.0938 14.4036 39.108 14.0786 39.108 13.7518C39.108 8.00625 34.4509 3.34821 28.7045 3.34821C26.9692 3.34668 25.2613 3.77976 23.7364 4.60792C22.2116 5.43608 20.9184 6.63295 19.975 8.08929L18.6134 10.1821L16.2196 9.475C15.5699 9.2825 14.8848 9.24063 14.2165 9.35258C13.5481 9.46452 12.9141 9.72732 12.3625 10.121C11.811 10.5147 11.3564 11.029 11.0333 11.6247C10.7103 12.2204 10.5273 12.8819 10.4982 13.5589L10.4946 13.8205L10.5777 16.633L7.90179 17.25C6.60686 17.5512 5.45202 18.2819 4.62521 19.323C3.7984 20.3641 3.34832 21.6544 3.34821 22.9839C3.34821 24.5444 3.96813 26.041 5.07158 27.1445C6.17503 28.2479 7.67163 28.8679 9.23214 28.8679H18.7429V32.2161H9.23214C4.13393 32.2161 0 28.0821 0 22.9839C0 18.6018 3.05357 14.9321 7.14911 13.9875L7.14554 13.7518C7.14521 12.537 7.42835 11.3389 7.97245 10.2528C8.51655 9.16673 9.30659 8.22258 10.2797 7.49548C11.2529 6.76838 12.3822 6.2784 13.578 6.06451C14.7738 5.85062 16.003 5.91872 17.1679 6.26339C19.6205 2.49286 23.8714 0 28.7045 0" fill="black" fill-opacity="0.4"/>
</svg>
