<svg width="44" height="44" viewBox="0 0 44 44" fill="none" xmlns="http://www.w3.org/2000/svg">
<path d="M30.082 16.4463C30.082 18.5691 29.2388 20.6049 27.7377 22.1059C26.2367 23.6069 24.2009 24.4502 22.0781 24.4502C19.9554 24.4502 17.9195 23.6069 16.4185 22.1059C14.9175 20.6049 14.0742 18.5691 14.0742 16.4463C14.0742 14.3235 14.9175 12.2877 16.4185 10.7867C17.9195 9.28565 19.9554 8.44238 22.0781 8.44238C24.2009 8.44238 26.2367 9.28565 27.7377 10.7867C29.2388 12.2877 30.082 14.3235 30.082 16.4463Z" fill="white"/>
<path fill-rule="evenodd" clip-rule="evenodd" d="M0.734375 21.7822C0.734375 16.1215 2.98309 10.6926 6.98581 6.68992C10.9885 2.68719 16.4174 0.438477 22.0781 0.438477C27.7388 0.438477 33.1677 2.68719 37.1704 6.68992C41.1732 10.6926 43.4219 16.1215 43.4219 21.7822C43.4219 27.4429 41.1732 32.8718 37.1704 36.8745C33.1677 40.8773 27.7388 43.126 22.0781 43.126C16.4174 43.126 10.9885 40.8773 6.98581 36.8745C2.98309 32.8718 0.734375 27.4429 0.734375 21.7822ZM22.0781 3.10645C18.5612 3.10663 15.1157 4.0999 12.1383 5.97192C9.16099 7.84394 6.77274 10.5186 5.24848 13.6881C3.72422 16.8576 3.12591 20.3931 3.5224 23.8877C3.91889 27.3822 5.29407 30.6938 7.48967 33.4412C9.38393 30.3891 13.554 27.1182 22.0781 27.1182C30.6023 27.1182 34.7697 30.3864 36.6666 33.4412C38.8622 30.6938 40.2374 27.3822 40.6339 23.8877C41.0303 20.3931 40.432 16.8576 38.9078 13.6881C37.3835 10.5186 34.9953 7.84394 32.0179 5.97192C29.0405 4.0999 25.5951 3.10663 22.0781 3.10645Z" fill="white"/>
</svg>
