<svg width="62" height="69" viewBox="0 0 62 69" fill="none" xmlns="http://www.w3.org/2000/svg">
<path d="M23.712 5.85103C18.8538 5.85103 11.4056 8.83616 13.9957 27.3222C14.0353 27.6017 14.0872 27.904 14.1407 28.2274C14.6138 31.0077 15.3434 35.3124 10.7004 38.8614C13.8583 41.6207 18.3563 44.3783 23.8219 45.5727C23.6059 46.8924 23.335 48.2013 23.0099 49.4954C22.5657 51.2309 21.6347 52.4611 19.9711 52.9859C18.5058 53.4474 16.9704 53.8212 15.3983 54.2047C14.9939 54.3022 14.5863 54.4013 14.1773 54.5037C12.216 54.9896 10.2166 55.5275 8.44457 56.288C6.66797 57.0517 5.01653 58.0803 3.82298 59.6143C2.60805 61.1792 1.95786 63.152 2.00212 65.6187C2.01738 66.3857 2.634 67 3.39104 67H58.609C59.366 67 59.9826 66.3857 59.9979 65.6187C60.0421 63.152 59.3935 61.1792 58.177 59.6143C56.985 58.0803 55.332 57.0501 53.557 56.288C51.7834 55.5258 49.784 54.988 47.8212 54.5021L46.6032 54.2047C45.0296 53.8212 43.4942 53.4474 42.0289 52.9859C40.3653 52.4611 39.4342 51.2309 38.9901 49.4954C38.6014 47.9547 38.2927 46.3923 38.0652 44.8154C42.2441 43.4764 46.6856 41.0698 51.2996 37.2266L51.2782 37.2039C49.1124 34.9971 45.0525 30.8599 44.764 21.0383C44.764 7.51503 36.6656 -4.37026 23.712 5.85103Z" stroke="black" stroke-width="4" stroke-linejoin="round"/>
</svg>
